<svg xmlns="http://www.w3.org/2000/svg" width="327.026" height="470.39" viewBox="0 0 327.026 470.39">
  <g id="board" transform="translate(0.663)">
    <path id="Path" d="M51.365,0a62.32,62.32,0,0,0-22,8.3,61.312,61.312,0,0,0-23.3,26c-2.5,5.2-8.1,17.3-5.3,32.3,4.1,22.2,23.6,33.3,26.7,35,9.9-15.1,19.7-30.3,29.6-45.4Q54.065,28.15,51.365,0Z" transform="translate(159.935 204.6)" fill="#707070"/>
    <path id="Path-2" data-name="Path" d="M0,23.8C14.6,15.9,29.1,8,43.7,0c3.2,4,9.2,12.9,9.1,24.9a35.2,35.2,0,0,1-.8,7.5Q25.9,28.05,0,23.8Z" transform="translate(218.7 235.2)" fill="#3f3f3f"/>
    <path id="Path-3" data-name="Path" d="M0,2.3C1.8,25.8,3.5,49.4,5.3,72.9c6.4-.4,12.8-.9,19.1-1.3C22.3,47.7,20.2,23.9,18.1,0,12,.8,6,1.5,0,2.3Z" transform="translate(62.1 325.7)" fill="#3f3f3f"/>
    <path id="Path-4" data-name="Path" d="M0,1.7C1,16.2,2,30.6,3.1,45.1c6.4-.6,12.8-1.1,19.1-1.7C20.8,28.9,19.5,14.5,18.1,0,12,.5,6,1.1,0,1.7Z" transform="translate(97.8 350.8)" fill="#707070"/>
    <path id="Path-5" data-name="Path" d="M324.9,419Q176.1,432.65,27.4,446.2,13.75,228.4,0,10.5,148.35,5.25,296.8,0,310.9,209.55,324.9,419Z" transform="translate(0.4 23.1)" fill="none" stroke="#161616" stroke-miterlimit="10" stroke-width="2"/>
    <path id="Path-6" data-name="Path" d="M.022,1.886c1.1,7.9,2.3,15.8,3.4,23.7.3,1.9,3.2,1.1,2.9-.8-1.1-7.9-2.3-15.8-3.4-23.7-.3-1.9-3.2-1.1-2.9.8Z" transform="translate(102.678 4.214)" fill="#e8e8e8"/>
    <path id="Path-7" data-name="Path" d="M1.425,5.9c22.5-1.5,45.1-2.4,67.6-2.9a1.5,1.5,0,0,0,0-3q-33.9.75-67.6,2.9c-1.9.1-1.9,3.1,0,3Z" transform="translate(103.375)" fill="#e8e8e8"/>
    <path id="Path-8" data-name="Path" d="M.021,1.425c1,8.5,1.8,16.9,2.3,25.4.1,1.9,3.1,1.9,3,0-.5-8.5-1.3-17-2.3-25.4-.3-1.9-3.3-1.9-3,0Z" transform="translate(171.479 0.375)" fill="#e8e8e8"/>
    <path id="Path-9" data-name="Path" d="M.01,1.425c.7,7.4,1.4,14.9,2.1,22.3a1.538,1.538,0,0,0,1.5,1.5c21.5.2,42.9-3.2,64.5-2.5,1.9.1,1.9-2.9,0-3-21.5-.7-42.9,2.6-64.5,2.5l1.5,1.5c-.7-7.4-1.4-14.9-2.1-22.3-.2-1.9-3.2-1.9-3,0Z" transform="translate(104.89 4.375)" fill="#e8e8e8"/>
    <path id="Path-10" data-name="Path" d="M.684,5c3.3,2,7.6,1,11.2.8l18-.9c12-.6,23.9-1.3,35.9-1.9l-1.5-1.5c.3,6.5.6,13,.9,19.6.1,1.9,3.1,1.9,3,0-.3-6.5-.6-13-.9-19.6a1.538,1.538,0,0,0-1.5-1.5c-10.6.6-21.3,1.1-31.9,1.7-5.3.3-10.6.6-16,.8-4.2.2-12,2.2-15.7-.1C.584,1.4-.916,4,.684,5Z" transform="translate(105.816 1.8)" fill="#e8e8e8"/>
    <path id="Path-11" data-name="Path" d="M.039,3.551a128.913,128.913,0,0,1,3.1,18.6c1-.1,2-.3,2.9-.4a42.083,42.083,0,0,1,.2-16.2c-1-.1-2-.3-2.9-.4.2,6,.6,11.7,2.9,17.2.7,1.6,3.2.4,2.7-1.2-1.7-6.4-3.3-12.7-1.6-19.3h-2.9l2.7,18c.3,1.9,3.2,1.1,2.9-.8l-2.7-18c-.2-1.5-2.6-1.3-2.9,0-1.8,7.1-.2,14,1.6,20.9l2.7-1.2c-2.1-5-2.3-10.4-2.5-15.7,0-1.6-2.6-2.1-2.9-.4-1.1,6-1.5,11.8-.2,17.8.3,1.6,3.1,1.3,2.9-.4a142.677,142.677,0,0,0-3.2-19.4c-.4-1.8-3.2-1-2.8.9Z" transform="translate(106.361 3.849)" fill="#e8e8e8"/>
    <path id="Path-12" data-name="Path" d="M3.219,7.943l3.3-5.4c-.9-.5-1.7-1-2.6-1.5-1.3,2.9-2.5,5.8-3.8,8.7-.6,1.4,1.2,3.3,2.4,1.8,2-2.5,3.9-5.1,5.9-7.6-.8-.5-1.7-1-2.5-1.5a30.092,30.092,0,0,1-3.2,6.8c-.9,1.4,1.3,3.2,2.4,1.8,1.5-1.9,3-3.8,4.6-5.7l-2.4-1.8c-2,4.7-4,9.3-6,14-.6,1.4,1.2,3.3,2.4,1.8,3.6-4.5,7.3-9.1,10.9-13.6l-2.4-1.8c-2.7,4.4-5.4,8.9-8.1,13.3a1.5,1.5,0,0,0,1.7,2.2,6.385,6.385,0,0,0,3-1.7c-.8-.5-1.7-1-2.5-1.5a8.358,8.358,0,0,1-3.1,4.1c-1.5,1.1-.2,3.6,1.5,2.6a12.472,12.472,0,0,1,4.9-1.7l-1.8-1.8c-2.6-1.3-3.4-3.1-2.4-5.5a14.188,14.188,0,0,1,1.4-3.6c.8-1.4,2.3-4.8,3.8-1.8,1.1,2.2-3.5,14.5-4.1,6.9a15.956,15.956,0,0,1,.7-5.8,20.035,20.035,0,0,1,1.7-4c1-2,1.5-2,1.6,0,1.9,4-.4,10.3-2.3,13.8a25.122,25.122,0,0,1,2.7.4,16.753,16.753,0,0,1-.5-8.3c.2-1.1,1.2-6.4,2.3-4.7,2.3,3.3-1.5,10.8-3.1,13.7.9.3,1.9.5,2.8.8a26.823,26.823,0,0,1,.1-8c.3-1.8,1.4-7.6,3.3-7.8,2.7-.3-2.5,12-3.7,13.8a25.123,25.123,0,0,1,2.7.4c-.9-4.5-.9-14.1,5.2-15.6-.6-.3-1.2-.7-1.8-1a18.818,18.818,0,0,1-4.8,16.5,23.348,23.348,0,0,1,2.5.7,16.668,16.668,0,0,1-.1-8.3c.4-1.5,2.5-7.8,4.5-7.3,1.4.3-.4,6.1-.8,7.4a20.714,20.714,0,0,1-5.3,8.4,23.347,23.347,0,0,1,2.5.7,15.463,15.463,0,0,1,7.1-17c-.7-.3-1.5-.6-2.2-.9,2.3,6.1-3.6,14-7.5,18.1a23.347,23.347,0,0,1,2.5.7,15.721,15.721,0,0,1,.2-8.6c.3-.9,3.3-7.7,4.7-7.2,2,.7-1.4,6.8-2,7.7-.7,1.3-2,3.6-3.3,4.4-1.5,1-1.4,1.2-1.5-1-.1-3,1.9-6.4,3.6-8.6.9-1.2,2.4-3.1,3.8-3.6,1.6-.7,1.4-.9,1.2,1.2-.7,6.2-4.2,11.8-8.6,16.1a23.347,23.347,0,0,1,2.5.7,18.288,18.288,0,0,1,5.5-16.1c1.3-1.2,2.8-2,3.3.5.2,1-1,3.4-1.4,4.3a26.921,26.921,0,0,1-5.9,8.6h2.1c-1.8-2.1.5-6.7,1.6-8.7.5-.9,4.8-7.5,6-6.9,1.4.7-1.7,7.4-2.1,8.1a31.7,31.7,0,0,1-5.3,7.3c.9.4,1.7.7,2.6,1.1a20.252,20.252,0,0,1,9.7-17.4c-.8-.4-1.5-.9-2.3-1.3a23.017,23.017,0,0,1-7.1,17.3c.9.4,1.7.7,2.6,1.1a26.316,26.316,0,0,1,9.6-18.3l-2.4-.3c3.2,4.8-3.8,13.8-6.6,17.4.9.4,1.7.7,2.6,1.1a22.056,22.056,0,0,1,1.7-8c.6-1.6,3.1-7.1,4.9-7.5,2.4-.5-.1,4.1-.9,5.8a30.042,30.042,0,0,1-5.5,7.7c.8.5,1.7,1,2.5,1.5.9-6.2,3.4-14.4,9.9-16.7a23.07,23.07,0,0,0-1.9-1.4,27.133,27.133,0,0,1-8.8,17.2c.9.4,1.7.7,2.6,1.1a27.784,27.784,0,0,1,2.4-9.3c.9-1.9,3.3-6.9,5.5-7.3,1.1-.2,0,1.5-.4,2.6a31.306,31.306,0,0,1-2.2,4.5,36.06,36.06,0,0,1-5.9,7.6c.9.4,1.7.7,2.6,1.1a21.369,21.369,0,0,1,8.4-15.8c-.7-.6-1.5-1.1-2.2-1.7-.8,4.7-3.2,8.4-6.4,11.9-1.9,2.1-2.5,1.6-2.7-1.2a8.341,8.341,0,0,1,5.9-8.6,23.069,23.069,0,0,0-1.9-1.4,32.86,32.86,0,0,1-5.3,16.4c.9.3,1.9.5,2.8.8a23.667,23.667,0,0,1,2.5-8.6c.9-1.8,3.2-6.3,5.2-6.8,2.9-.8,0,4.9-.7,6.3a30.823,30.823,0,0,1-5.5,7.5c.9.4,1.7.7,2.6,1.1a15.581,15.581,0,0,1,10.9-15.9,23.07,23.07,0,0,0-1.9-1.4,26.508,26.508,0,0,1-9.7,17.7c.9.4,1.7.7,2.6,1.1a23.445,23.445,0,0,1,10-16.8c-.7-.3-1.5-.6-2.2-.9,1.6,5.2-3.9,12-6.9,15.7.9.4,1.7.7,2.6,1.1.4-5.1,3.3-14.4,9.4-15.3l-1.8-1.8a33.654,33.654,0,0,1-7.1,15.3c.9.4,1.7.7,2.6,1.1a23.632,23.632,0,0,1,6.9-15.7l-2.4-.3c2.3,4.2-2.4,11.6-4.5,15.3l2.7,1.2c1-4.8,1.8-12.9,6.3-15.8a11.019,11.019,0,0,0-1.8-.2c2.5,2.8-2.3,12.2-3.4,15,1,.3,1.9.5,2.9.8,1.4-5.1,2.7-10.1,4.1-15.2-1-.1-2-.3-2.9-.4a36.739,36.739,0,0,1-2.1,13.9c1,.1,2,.3,2.9.4.5-4.5,0-11.5,2.6-15.3a25.123,25.123,0,0,1-2.7-.4c1.4,4.9.9,9.6.2,14.7,1,.1,2,.3,2.9.4-.4-5.6-.8-11.3-1.2-16.9-.9.4-1.7.7-2.6,1.1,3.8,3.9,2.3,9,.6,13.5a25.123,25.123,0,0,0,2.7-.4c-1.1-2.1-3.3-5.6-3.2-8.1-1-1.6-.6-2.4,1.3-2.3a6.819,6.819,0,0,1,.8,5c.9-.4,1.7-.7,2.6-1.1a12.929,12.929,0,0,1-2.9-6c-.7.6-1.5,1.1-2.2,1.7.4,1.1.8,2.3,1.2,3.4a25.122,25.122,0,0,1,2.7.4,14.883,14.883,0,0,1-.9-5.9,23.069,23.069,0,0,1-1.9,1.4c3.9,1.6,1.2,12,.7,14.7a17.1,17.1,0,0,0,1.4-1.1l-22.8.6a1.5,1.5,0,0,0,0,3c6.7.2,13.3-.8,19.9-1.8-.3-1-.5-1.9-.8-2.9a126.767,126.767,0,0,1-23.6,4.1,1.5,1.5,0,0,0,0,3c7.8.3,15.4-2.4,23.2-2.1-.1-1-.3-2-.4-2.9a42.045,42.045,0,0,1-18.3,1.9v3l21.6-2.1c-.1-1-.3-2-.4-2.9a44.365,44.365,0,0,1-14.5,1.7v3a57.191,57.191,0,0,0,14.3-1.8c1.9-.5,1.1-3.3-.8-2.9a80.206,80.206,0,0,1-16.9,1.8v3c6.8-.9,13.6-2,20.4-3.4,1.6-.3,1.3-3.1-.4-2.9a69.282,69.282,0,0,1-19.3-.3c-1.9-.3-2.7,2.6-.8,2.9a75.2,75.2,0,0,0,20.1.4c-.1-1-.3-2-.4-2.9-6.5,1.3-13,2.5-19.6,3.3-1.9.2-2,3,0,3a81.3,81.3,0,0,0,17.7-1.9c-.3-1-.5-1.9-.8-2.9a56.113,56.113,0,0,1-13.5,1.7c-1.9,0-1.9,2.9,0,3a49.721,49.721,0,0,0,15.3-1.8c1.6-.5,1.3-3.1-.4-2.9l-21.6,2.1a1.5,1.5,0,0,0,0,3,45.592,45.592,0,0,0,19.1-2,1.482,1.482,0,0,0-.4-2.9c-7.8-.3-15.4,2.4-23.2,2.1v3a125.84,125.84,0,0,0,24.4-4.2c1.9-.5,1.1-3.2-.8-2.9-6.4,1-12.7,1.9-19.1,1.7v3l22.8-.6a1.5,1.5,0,0,0,1.4-1.1c1-5.6,4.1-15.5-2.8-18.4-1-.4-1.8.6-1.9,1.4a13.9,13.9,0,0,0,1,6.7c.4,1.1,2.1,1.6,2.7.4a5.433,5.433,0,0,0-2.3-7.5,1.5,1.5,0,0,0-2.2,1.7,16.212,16.212,0,0,0,3.7,7.4c.9,1.1,2.5.1,2.6-1.1.3-3.2-2.5-12.7-7.6-9.8-4.6,2.7,1.5,13.6,3,16.7.6,1.3,2.3.7,2.7-.4,2.2-5.7,3.2-11.7-1.4-16.4a1.53,1.53,0,0,0-2.6,1.1c.4,5.6.8,11.3,1.2,16.9.1,1.6,2.7,2.2,2.9.4.8-5.5,1.4-10.8-.2-16.3a1.506,1.506,0,0,0-2.7-.4c-3.1,4.4-2.5,11.7-3,16.8-.2,1.8,2.4,1.9,2.9.4a38.647,38.647,0,0,0,2.2-14.7,1.477,1.477,0,0,0-2.9-.4c-1.4,5.1-2.7,10.1-4.1,15.2a1.5,1.5,0,0,0,2.9.8c1.8-4.6,6.6-13.4,2.6-18a1.377,1.377,0,0,0-1.8-.2c-5.5,3.6-6.5,11.7-7.7,17.6-.3,1.6,1.9,2.7,2.7,1.2,2.7-4.9,7.5-12.8,4.5-18.4a1.572,1.572,0,0,0-2.4-.3,27.167,27.167,0,0,0-7.8,17.8,1.553,1.553,0,0,0,2.6,1.1,36.053,36.053,0,0,0,7.9-16.6,1.489,1.489,0,0,0-1.8-1.8c-7.5,1.1-11.1,11.7-11.6,18.2a1.553,1.553,0,0,0,2.6,1.1c3.9-4.7,9.7-12.1,7.7-18.6a1.489,1.489,0,0,0-2.2-.9,26.594,26.594,0,0,0-11.5,19.3c-.2,1.4,1.7,1.8,2.6,1.1a29.675,29.675,0,0,0,10.5-19.8,1.44,1.44,0,0,0-1.9-1.4,18.542,18.542,0,0,0-13.1,18.8,1.563,1.563,0,0,0,2.6,1.1c2.3-2.3,14.3-18.6,6.8-20.4-3.1-.8-6.6,4-8.1,6a27.9,27.9,0,0,0-5.3,13.9c-.2,1.6,2.1,1.9,2.8.8a34.581,34.581,0,0,0,5.8-17.9,1.471,1.471,0,0,0-1.9-1.4c-4.1,1.1-6.6,4.1-7.6,8.2-.7,2.6-1.4,7.5,1.4,9.2,2.7,1.7,4.9-1.3,6.4-3.1,3.2-3.7,5.8-7.7,6.6-12.6.2-1.1-1-2.6-2.2-1.7a24.571,24.571,0,0,0-9.9,18.4c-.1,1.3,1.7,1.9,2.6,1.1,2.4-2.4,15.2-18.2,8.3-20.8-3.1-1.2-6.4,3.8-7.8,5.8a29.492,29.492,0,0,0-5.1,14.6c-.1,1.4,1.7,1.9,2.6,1.1a29.987,29.987,0,0,0,9.7-19.3,1.482,1.482,0,0,0-1.9-1.4c-7.6,2.7-10.9,11.4-12,18.8-.2,1.4,1.4,2.7,2.5,1.5,2.4-2.5,13.8-18.2,6.8-20.2-3.2-.9-6.7,4.6-8.1,6.8a26.188,26.188,0,0,0-4,13.3,1.553,1.553,0,0,0,2.6,1.1c3.8-4.7,11.2-14.7,7.1-21a1.572,1.572,0,0,0-2.4-.3,29.608,29.608,0,0,0-10.5,20.5c-.1,1.3,1.7,1.9,2.6,1.1a26.332,26.332,0,0,0,7.9-19.4,1.55,1.55,0,0,0-2.3-1.3,23.36,23.36,0,0,0-11.2,20,1.563,1.563,0,0,0,2.6,1.1,31.82,31.82,0,0,0,8.2-14.2c.6-2.3,1-6.8-2.7-6.6-3.9.2-8,7-9.4,10-1.5,3.4-3.1,7.8-.4,10.9a1.543,1.543,0,0,0,2.1,0,27.806,27.806,0,0,0,8.1-14.3c.5-2.5.7-6.7-2.9-6.7-3.8,0-7.9,5.6-9.4,8.5a20.705,20.705,0,0,0-2.2,13.8,1.512,1.512,0,0,0,2.5.7,32.647,32.647,0,0,0,9.2-16.1c.6-2.7,1.4-7.3-2.6-7.2-6.9.2-16.4,17.5-9.9,22a1.59,1.59,0,0,0,1.5,0c3.5-1.7,15.9-18.5,8.3-20.7-3.2-1-6.8,4.4-8,6.7a19,19,0,0,0-1.7,13.6,1.512,1.512,0,0,0,2.5.7c4.7-5,11-13.9,8.3-21a1.522,1.522,0,0,0-2.2-.9,18.555,18.555,0,0,0-8.5,20.4,1.553,1.553,0,0,0,2.5.7,25.774,25.774,0,0,0,7.2-14.3c.4-2.4,1.3-6.8-1.8-7.8-3.3-1-6.4,4.6-7.5,7a20.771,20.771,0,0,0-1.2,13.7,1.512,1.512,0,0,0,2.5.7,21.689,21.689,0,0,0,5.6-19.4,1.474,1.474,0,0,0-1.8-1c-7.8,1.9-8.6,12.9-7.3,19.3a1.506,1.506,0,0,0,2.7.4,25.114,25.114,0,0,0,4.7-12.4c.2-2.2.8-6.8-2.2-7.6s-4.8,3.6-5.7,5.7a27.752,27.752,0,0,0-2,14.8c.2,1.4,2,2.2,2.8.8,3.1-5.4,5.7-13.5,2.9-19.5a1.209,1.209,0,0,0-1.3-.7c-7.4.1-7,14.2-5.7,18.9a1.506,1.506,0,0,0,2.7.4c2.8-4.9,4.6-12.1,2.2-17.6-1.7-3.9-4.8-2.1-6.7.8-2.7,4.2-4.4,12.1-1.7,16.7,2.1,3.6,4.8.9,6.3-1.8,1.8-3.3,4.7-11.4,1.7-14.9-2.7-3.1-6.2,1.2-7.7,3.4-2.3,3.5-4.5,9.9-1.6,13.7a4.137,4.137,0,0,0,7.4-1c.5-1.2-.8-2-1.8-1.8a13.957,13.957,0,0,0-5.6,2c.5.9,1,1.7,1.5,2.6a13.187,13.187,0,0,0,4.5-5.9c.6-1.5-1.5-2.3-2.5-1.5-.6.3-1.1.6-1.7.9.6.7,1.1,1.5,1.7,2.2,2.7-4.4,5.4-8.9,8.1-13.3.9-1.4-1.3-3.2-2.4-1.8-3.6,4.5-7.3,9.1-10.9,13.6l2.4,1.8c2-4.7,4-9.3,6-14,.6-1.4-1.2-3.3-2.4-1.8-1.5,1.9-3,3.8-4.6,5.7l2.4,1.8a34.176,34.176,0,0,0,3.5-7.5c.4-1.4-1.6-2.7-2.5-1.5-2,2.5-3.9,5.1-5.9,7.6l2.4,1.8c1.3-2.9,2.5-5.8,3.8-8.7.8-1.7-1.6-3.2-2.6-1.5l-3.3,5.4c-1.3-.6,1.3.9,2.3-.8Z" transform="translate(110.881 4.757)" fill="#e8e8e8"/>
    <path id="Path-13" data-name="Path" d="M3.543,1.476c0,3.4.1,6.9.2,10.3.1,2.5,1.2,7.8-.4,9.7-1,1.2.3,3.3,1.8,2.4a8.777,8.777,0,0,0,1.5-1.2,1.553,1.553,0,0,0-.7-2.5,8.21,8.21,0,0,0-4.9.2c-1.8.6-1.1,3.5.8,2.9,1.1-.1,2.2-.1,3.3-.2a23.347,23.347,0,0,0-.7-2.5,6.034,6.034,0,0,0-.8.8l1.8,2.4c2.2-2.6,1.6-4.4,1.4-7.9-.2-4.7-.3-9.5-.3-14.2a1.5,1.5,0,1,0-3-.2Z" transform="translate(164.857 2.724)" fill="#e8e8e8"/>
    <path id="Path-14" data-name="Path" d="M1.425,5.834q61.65-3.45,123.5-2.7a1.5,1.5,0,0,0,0-3q-61.8-.75-123.5,2.7c-1.9.1-1.9,3.1,0,3Z" transform="translate(19.075 85.466)" fill="#e8e8e8"/>
    <path id="Path-15" data-name="Path" d="M1.463,7.7A848.685,848.685,0,0,1,90.163,3a1.5,1.5,0,0,0,0-3,822.244,822.244,0,0,0-88.7,4.7c-1.9.2-2,3.2,0,3Z" transform="translate(24.337 111)" fill="#e8e8e8"/>
    <path id="Path-16" data-name="Path" d="M1.425,9.7q59.1-6.15,118.5-6.7a1.5,1.5,0,0,0,0-3q-59.4.45-118.5,6.7c-1.9.2-1.9,3.2,0,3Z" transform="translate(27.075 160.1)" fill="#e8e8e8"/>
    <path id="Path-17" data-name="Path" d="M32.211,103.861c-19.4-7.5-30.9-29-29-49.4,2-20.7,17.4-38.4,35.9-46.7,12.7-5.7,26.7-6.9,39.2-.2a64.559,64.559,0,0,1,24.1,22.6c12.3,19.6,11.4,43.3-1.6,62.5-7.8,11.5-22.5,14.8-35.4,16.8-12.8,2-26.3,1.3-37.1-6.6-1.6-1.1-3.1,1.5-1.5,2.6,10,7.3,22.3,8.8,34.3,7.6,11.9-1.2,26-3.8,35.6-11.4,9.5-7.5,15.2-21.7,17.2-33.3,1.9-11.1-.2-22.3-4.9-32.5-10.5-22.7-34.7-40.9-60.4-34.6-22.2,5.4-41.8,23.3-47.2,45.8-5.8,23.9,6.7,50.6,29.9,59.6,1.9.8,2.7-2.1.9-2.8Z" transform="translate(158.089 202.739)" fill="#e8e8e8"/>
    <path id="Path-18" data-name="Path" d="M0,1.425c1.2,18.5,2.4,37,3.7,55.5.1,1.9,3.1,1.9,3,0-1.2-18.5-2.4-37-3.7-55.5-.1-1.9-3.1-1.9-3,0Z" transform="translate(211.398 203.075)" fill="#e8e8e8"/>
    <path id="Path-19" data-name="Path" d="M2.248,29.025q22.8-12.45,45-26.2c1.6-1,.1-3.6-1.5-2.6q-22.05,13.8-45,26.2a1.5,1.5,0,0,0,1.5,2.6Z" transform="translate(215.652 232.775)" fill="#e8e8e8"/>
    <path id="Path-20" data-name="Path" d="M1.425,3c17.2,0,34.2,4.1,51.1,7,1.9.3,2.7-2.6.8-2.9C36.225,4.2,18.925,0,1.425,0a1.5,1.5,0,0,0,0,3Z" transform="translate(217.075 259.3)" fill="#e8e8e8"/>
    <path id="Path-21" data-name="Path" d="M29.125.728c-9.6,15.9-19.2,31.7-28.9,47.6a1.5,1.5,0,0,0,2.6,1.5c9.6-15.9,19.2-31.7,28.9-47.6,1-1.6-1.6-3.2-2.6-1.5Z" transform="translate(186.775 259.572)" fill="#e8e8e8"/>
    <path id="Path-22" data-name="Path" d="M1.425,14.61q65.25-4.95,130.2-11.6c1.9-.2,1.9-3.2,0-3q-65.1,6.6-130.2,11.6c-1.9.2-1.9,3.2,0,3Z" transform="translate(44.175 387.39)" fill="#e8e8e8"/>
    <path id="Path-23" data-name="Path" d="M.01,1.425c1.6,23,3.3,46.1,4.9,69.1.1,1.9,3.1,1.9,3,0-1.6-23-3.3-46.1-4.9-69.1-.2-1.9-3.2-1.9-3,0Z" transform="translate(60.39 326.875)" fill="#e8e8e8"/>
    <path id="Path-24" data-name="Path" d="M1.858,4.1a76.146,76.146,0,0,1,17.2-1l-1.5-1.5c1.5,23.4,3.7,46.7,6.4,69.9.2,1.9,3.2,1.9,3,0-2.8-23.2-4.9-46.6-6.4-69.9a1.538,1.538,0,0,0-1.5-1.5,83.4,83.4,0,0,0-18,1.1c-1.9.4-1,3.3.8,2.9Z" transform="translate(61.442 324.503)" fill="#e8e8e8"/>
    <path id="Path-25" data-name="Path" d="M.022,1.886a329.823,329.823,0,0,1,4.2,42.1c.1,1.9,3.1,1.9,3,0a324.693,324.693,0,0,0-4.3-42.9c-.3-1.9-3.2-1.1-2.9.8Z" transform="translate(94.778 350.114)" fill="#e8e8e8"/>
    <path id="Path-26" data-name="Path" d="M1.425,4.108a123.19,123.19,0,0,0,17.2-1.1l-1.5-1.5c1.4,13.9,2.9,27.7,4.3,41.6.2,1.9,3.2,1.9,3,0-1.4-13.9-2.9-27.7-4.3-41.6-.1-.7-.6-1.6-1.5-1.5a141.872,141.872,0,0,1-17.2,1.1,1.5,1.5,0,0,0,0,3Z" transform="translate(96.975 349.392)" fill="#e8e8e8"/>
    <path id="Path-27" data-name="Path" d="M.01,1.425c2.4,21.6,3.9,43.2,4.5,65,.1,1.9,3.1,1.9,3,0q-1.05-32.55-4.5-65c-.2-1.9-3.2-1.9-3,0Z" transform="translate(130.39 326.675)" fill="#e8e8e8"/>
    <path id="Path-28" data-name="Path" d="M1.438,3.1c3.2.2,6.5.3,9.7.5,4.5.2,4.6.3,4.7,4.8.3,6.5.6,12.9,1,19.4a326.239,326.239,0,0,0,4.6,36.9c.4,1.9,3.2,1.1,2.9-.8a348.841,348.841,0,0,1-5.1-46.8c-.2-3.6-.3-7.1-.5-10.7-.1-1.4.1-3.5-1-4.7-1.2-1.2-3.3-1-4.8-1.1-3.9-.2-7.7-.4-11.6-.6-1.8,0-1.8,3,.1,3.1Z" transform="translate(130.462 326.2)" fill="#e8e8e8"/>
    <path id="Path-29" data-name="Path" d="M1.5,17.622a1011.523,1011.523,0,0,0,115.1-14.7c1.9-.4,1.1-3.2-.8-2.9A1000.377,1000.377,0,0,1,1.5,14.622c-2,.1-2,3.1,0,3Z" transform="translate(169.3 405.678)" fill="#e8e8e8"/>
    <path id="Path-30" data-name="Path" d="M1.425,8.11c16.4-1.7,32.9-3.4,49.3-5.1,1.9-.2,1.9-3.2,0-3-16.4,1.7-32.9,3.4-49.3,5.1-1.9.2-1.9,3.2,0,3Z" transform="translate(228.175 396.09)" fill="#e8e8e8"/>
    <path id="Path-31" data-name="Path" d="M1.5,3.9C9,3.6,16.6,3.3,24.1,3c1.9-.1,1.9-3.1,0-3C16.6.3,9,.6,1.5.9c-2,.1-2,3.1,0,3Z" transform="translate(256.1 380.298)" fill="#e8e8e8"/>
    <path id="Path-32" data-name="Path" d="M.108,1.815a44.159,44.159,0,0,1,2.4,16.9c-.1,1.9,2.9,1.9,3,0a46.359,46.359,0,0,0-2.5-17.7c-.7-1.8-3.6-1-2.9.8Z" transform="translate(178.292 46.085)" fill="#e8e8e8"/>
    <path id="Path-33" data-name="Path" d="M1.425,8.5q41.25-4.2,82.6-5.5c1.9-.1,1.9-3.1,0-3-27.6.9-55.2,2.7-82.6,5.5-1.9.2-1.9,3.2,0,3Z" transform="translate(179.475 39.698)" fill="#e8e8e8"/>
    <path id="Path-34" data-name="Path" d="M1.425,9c27.4-2,54.7-4,82.1-6,1.9-.1,1.9-3.1,0-3-27.4,2-54.7,4-82.1,6-1.9.1-1.9,3.1,0,3Z" transform="translate(182.375 57.398)" fill="#e8e8e8"/>
    <path id="Path-35" data-name="Path" d="M.022,1.886c.9,6.2,1.8,12.3,2.7,18.5.3,1.9,3.2,1.1,2.9-.8-.9-6.2-1.8-12.3-2.7-18.5-.3-1.9-3.2-1.1-2.9.8Z" transform="translate(263.878 41.314)" fill="#e8e8e8"/>
  </g>
</svg>
