<svg xmlns="http://www.w3.org/2000/svg" width="281.45" height="193.912" viewBox="0 0 281.45 193.912">
  <g id="books" transform="translate(-0.998 -0.098)">
    <path id="Path" d="M0,7.3c2.2.4,5.4,1,9.4,1.5,19.1,2.8,32.7,2.7,49.5,2.9,10.1.1,25,.4,43.7,1.1,19.9-1.4,39.9-2.8,59.8-4.3-27.5-2.8-55-5.7-82.5-8.5Q39.85,3.6,0,7.3Z" transform="translate(53.9 1.2)" fill="#6b6b6b"/>
    <path id="Path-2" data-name="Path" d="M0,10.2l17.1,3.6A333.137,333.137,0,0,0,81.5,3.6C85.9,2.5,90.2,1.3,94.3,0Q47.2,5.1,0,10.2Z" transform="translate(112.7 60.4)" fill="#6b6b6b"/>
    <path id="Path-3" data-name="Path" d="M0,23.7C.1,32.1.2,40.6.3,49Q69.6,57.85,139,66.7V41.4q42.45-18.9,84.8-37.8L200.1,0c-.9,1.4-1.8,2.8-2.6,4.3Q146.05,20.2,94.6,36.2C63.1,32,31.5,27.8,0,23.7Z" transform="translate(55.2 125.8)" fill="#6b6b6b"/>
    <path id="Path-4" data-name="Path" d="M0,6.7c34.6,4.2,69.3,8.4,103.9,12.6,29-.7,59.5-2.6,91.3-6.1,8.5-.9,16.8-2,25-3.1-8.7-2.6-17.3-5.3-26-7.9-17.3,1.6-34.7,3.2-52,4.8C109.3,4.7,76.5,2.3,43.6,0,29.1,2.2,14.5,4.4,0,6.7Z" transform="translate(3.8 28.5)" fill="#262626"/>
    <path id="Path-5" data-name="Path" d="M0,22.6c10.7,1.6,21.5,3.2,32.2,4.8,29.6-7.7,59.1-15.3,88.7-23C111.1,2.9,101.4,1.5,91.6,0Q45.7,11.4,0,22.6Z" transform="translate(133.7 73.9)" fill="#262626"/>
    <path id="Path-6" data-name="Path" d="M0,13.1q68.4,9.75,136.7,19.6c14.1-3,28.8-6.5,44.1-10.7,21-5.7,40.5-12,58.6-18.4L219,0q-31.95,8.85-64,17.7Q98.3,9.9,41.6,2.2C27.8,5.9,13.9,9.5,0,13.1Z" transform="translate(10.6 108.8)" fill="#262626"/>
    <path id="Path-7" data-name="Path" d="M0,1.425v18.1a1.5,1.5,0,0,0,3,0V1.425a1.5,1.5,0,0,0-3,0Z" transform="translate(47.6 9.975)" fill="#161616"/>
    <path id="Path-8" data-name="Path" d="M1.5,3C36.9,4.2,72.4,5.3,107.8,6.5c1.9.1,1.9-2.9,0-3C72.4,2.3,36.9,1.2,1.5,0c-2-.1-2,2.9,0,3Z" transform="translate(48.1 8.998)" fill="#161616"/>
    <path id="Path-9" data-name="Path" d="M1.5,3Q49.8,3.9,98,7.5c1.9.1,1.9-2.9,0-3Q49.85,1.05,1.5,0a1.5,1.5,0,0,0,0,3Z" transform="translate(48.1 28.8)" fill="#161616"/>
    <path id="Path-10" data-name="Path" d="M1.463,6.7c20.5-1.8,41.1-3,61.6-3.7,1.9-.1,1.9-3.1,0-3-20.6.6-41.1,1.9-61.6,3.7-1.9.1-2,3.1,0,3Z" transform="translate(155.437 9.198)" fill="#161616"/>
    <path id="Path-11" data-name="Path" d="M1.425,10.11c24.1-2.4,48.3-4.7,72.4-7.1,1.9-.2,1.9-3.2,0-3-24.1,2.4-48.3,4.7-72.4,7.1-1.9.2-1.9,3.2,0,3Z" transform="translate(145.175 26.29)" fill="#161616"/>
    <path id="Path-12" data-name="Path" d="M3.65.728a8.9,8.9,0,0,0-1.4,3.5c-.3,2.2.6,3.9-.5,6.1-1.3,2.8-2.1,5-1.6,8.1.3,1.9,3.2,1.1,2.9-.8-.5-3.3,1.2-4.8,2.2-7.5.9-2.8-.8-5.2,1-7.9,1-1.6-1.6-3.2-2.6-1.5Z" transform="translate(151.75 14.772)" fill="#161616"/>
    <path id="Path-13" data-name="Path" d="M1.865,11c27-3.7,54.1-6.3,81.4-8,1.9-.1,1.9-3.1,0-3q-41.25,2.55-82.1,8.1c-2,.3-1.2,3.1.7,2.9Z" transform="translate(48.135 0.098)" fill="#161616"/>
    <path id="Path-14" data-name="Path" d="M1.425,3.1a524.356,524.356,0,0,1,86.7,7.8c1.9.3,2.7-2.6.8-2.9a524.392,524.392,0,0,0-87.5-8c-1.9.1-1.9,3.1,0,3.1Z" transform="translate(127.975 0.1)" fill="#161616"/>
    <path id="Path-15" data-name="Path" d="M1.086,2.912c8.6,2,17.6-.1,26.4,0a264.754,264.754,0,0,1,29.4,2.4c1.9.2,1.9-2.8,0-3-9.1-1-18.3-2.1-27.5-2.3-8.9-.2-18.7,2.1-27.5.1a1.456,1.456,0,1,0-.8,2.8Z" transform="translate(54.414 18.388)" fill="#161616"/>
    <path id="Path-16" data-name="Path" d="M1.425,3c15.3.5,30.7,1.2,46,2.1,1.9.1,1.9-2.9,0-3-15.3-.9-30.7-1.6-46-2.1-1.9-.1-1.9,2.9,0,3Z" transform="translate(93.675 24.798)" fill="#161616"/>
    <path id="Path-17" data-name="Path" d="M1.463,3.01c8.8.7,17.7,1.6,26.5,2.7,1.9.2,1.9-2.8,0-3-8.8-1.1-17.6-2-26.5-2.7-2-.2-1.9,2.8,0,3Z" transform="translate(118.637 19.49)" fill="#161616"/>
    <path id="Path-18" data-name="Path" d="M1.08,7.5c7,1,13.8-.7,20.7-1.7,8.2-1.3,16.5-2.3,24.8-2.8,1.9-.1,1.9-3.1,0-3-6.7.4-13.4,1.2-20,2.1-8,1.1-16.5,3.7-24.6,2.6-2-.4-2.8,2.5-.9,2.8Z" transform="translate(161.72 16.498)" fill="#161616"/>
    <path id="Path-19" data-name="Path" d="M1.425,7.9c6.2.7,11.9-1.5,17.9-2.7A109.214,109.214,0,0,1,40.625,3a1.5,1.5,0,0,0,0-3,125.774,125.774,0,0,0-18.4,1.6c-6.8,1.2-13.8,4.2-20.8,3.4-1.9-.3-1.9,2.7,0,2.9Z" transform="translate(173.975 21.3)" fill="#161616"/>
    <path id="Path-20" data-name="Path" d="M0,1.5C.1,6.6.2,11.6.4,16.7a1.5,1.5,0,0,0,3,0C3.3,11.6,3.2,6.6,3,1.5a1.5,1.5,0,0,0-3,0Z" transform="translate(215.9 11.9)" fill="#161616"/>
    <path id="Path-21" data-name="Path" d="M.6,1.5Q.752,11.55,0,21.6c-.1,1.9,2.9,1.9,3,0q.75-10.05.6-20.1c-.1-2-3.1-2-3,0Z" transform="translate(0.998 34.4)" fill="#161616"/>
    <path id="Path-22" data-name="Path" d="M1.463,3.01c35,4.4,70.1,8.2,105.3,11.6,1.9.2,1.9-2.8,0-3-35.2-3.4-70.3-7.2-105.3-11.6-2-.2-1.9,2.8,0,3Z" transform="translate(1.637 55.89)" fill="#161616"/>
    <path id="Path-23" data-name="Path" d="M1,1.425c-.3,6.4-.7,12.7-1,19.1-.1,1.9,2.9,1.9,3,0,.3-6.4.7-12.7,1-19.1.1-1.9-2.9-1.9-3,0Z" transform="translate(106.798 47.675)" fill="#161616"/>
    <path id="Path-24" data-name="Path" d="M1.425,11.51q57.9-2.25,115.6-8.5c1.9-.2,1.9-3.2,0-3q-57.6,6.15-115.6,8.5c-1.9.1-1.9,3.1,0,3Z" transform="translate(107.875 38.19)" fill="#161616"/>
    <path id="Path-25" data-name="Path" d="M1.425,14.91q57.15-6.75,114.6-11.9c1.9-.2,1.9-3.2,0-3q-57.3,5.25-114.6,11.9c-1.9.2-1.9,3.2,0,3Z" transform="translate(108.375 56.39)" fill="#161616"/>
    <path id="Path-26" data-name="Path" d="M0,1.5C0,6.9.1,12.3.1,17.7a1.5,1.5,0,0,0,3,0C3.1,12.3,3,6.9,3,1.5a1.5,1.5,0,0,0-3,0Z" transform="translate(223.6 39.3)" fill="#161616"/>
    <path id="Path-27" data-name="Path" d="M1.886,8.21c15-2,30-3.8,45.1-5.2,1.9-.2,1.9-3.2,0-3-15.3,1.4-30.6,3.2-45.9,5.3-1.9.2-1.1,3.1.8,2.9Z" transform="translate(1.614 27.49)" fill="#161616"/>
    <path id="Path-28" data-name="Path" d="M1.425,3q51.9,3.75,103.5,10.8c1.9.3,2.7-2.6.8-2.9C71.125,6.2,36.325,2.5,1.425,0c-1.9-.1-1.9,2.9,0,3Z" transform="translate(3.575 34.698)" fill="#161616"/>
    <path id="Path-29" data-name="Path" d="M1.086,2.938a189.36,189.36,0,0,1,26.6,7c1.8.6,2.6-2.3.8-2.9a200.021,200.021,0,0,0-26.6-7c-1.9-.4-2.7,2.5-.8,2.9Z" transform="translate(196.614 29.662)" fill="#161616"/>
    <path id="Path-30" data-name="Path" d="M1.425,3.088c18-.9,35.2,5.4,53.1,5.7a1.5,1.5,0,0,0,0-3c-17.9-.3-35.2-6.6-53.1-5.7-1.9.1-1.9,3.1,0,3Z" transform="translate(18.375 48.412)" fill="#161616"/>
    <path id="Path-31" data-name="Path" d="M1.015,3.008c13.2,4.9,27.5,1.9,41.1,4.9,1.9.4,2.7-2.5.8-2.9-13.6-3-27.9,0-41.1-4.9-1.8-.7-2.6,2.2-.8,2.9Z" transform="translate(53.185 44.592)" fill="#161616"/>
    <path id="Path-32" data-name="Path" d="M1.886,13.3c33.2-7.5,67.7-8.3,101.5-10.3,1.9-.1,1.9-3.1,0-3-34.2,2.1-68.8,2.8-102.3,10.4-1.9.4-1.1,3.3.8,2.9Z" transform="translate(113.814 47.398)" fill="#161616"/>
    <path id="Path-33" data-name="Path" d="M1.425,6.238a147.663,147.663,0,0,0,35.1-3.3c1.9-.4,1.1-3.3-.8-2.9a146.644,146.644,0,0,1-34.3,3.2c-1.9-.1-1.9,2.9,0,3Z" transform="translate(169.775 51.962)" fill="#161616"/>
    <path id="Path-34" data-name="Path" d="M0,1.425v22.4a1.5,1.5,0,0,0,3,0V1.425a1.5,1.5,0,0,0-3,0Z" transform="translate(22.8 59.075)" fill="#161616"/>
    <path id="Path-35" data-name="Path" d="M1.015,2.958c16.2,4.8,34.1,4.9,50.9,6.5,17.8,1.7,35.7,3.5,53.5,5.2,1.9.2,1.9-2.8,0-3-17.2-1.7-34.4-3.3-51.6-5-17.1-1.7-35.5-1.7-52-6.6-1.8-.5-2.6,2.4-.8,2.9Z" transform="translate(22.885 81.842)" fill="#161616"/>
    <path id="Path-36" data-name="Path" d="M.1,1.5C.2,8.4.2,15.2,0,22.1a1.5,1.5,0,0,0,3,0c.2-6.9.2-13.7.1-20.6a1.5,1.5,0,1,0-3,0Z" transform="translate(128.1 71.8)" fill="#161616"/>
    <path id="Path-37" data-name="Path" d="M1.5,3A114.452,114.452,0,0,1,17.9,5.7a1.5,1.5,0,0,0,.8-2.9A112.1,112.1,0,0,0,1.5,0c-2-.1-2,2.9,0,3Z" transform="translate(110.7 69.798)" fill="#161616"/>
    <path id="Path-38" data-name="Path" d="M1.425,15.738a588.311,588.311,0,0,0,83.3-12.8c1.9-.4,1.1-3.3-.8-2.9a589.331,589.331,0,0,1-82.5,12.7c-1.9.1-1.9,3.1,0,3Z" transform="translate(128.675 59.162)" fill="#161616"/>
    <path id="Path-39" data-name="Path" d="M1.815,25.458c31.8-6.1,63.4-13.6,94.5-22.5a1.5,1.5,0,0,0-.8-2.9c-31.2,8.9-62.7,16.5-94.5,22.5-1.8.4-1,3.3.8,2.9Z" transform="translate(128.285 71.442)" fill="#161616"/>
    <path id="Path-40" data-name="Path" d="M.41,1.425a147.467,147.467,0,0,1-.4,14.9c-.2,1.9,2.8,1.9,3,0,.4-5,.5-10,.4-14.9a1.5,1.5,0,0,0-3,0Z" transform="translate(222.69 56.875)" fill="#161616"/>
    <path id="Path-41" data-name="Path" d="M1.425,4.258a43.026,43.026,0,0,0,10.1-1.3,1.5,1.5,0,0,0-.8-2.9,36.506,36.506,0,0,1-9.3,1.2,1.5,1.5,0,0,0,0,3Z" transform="translate(211.975 57.842)" fill="#161616"/>
    <path id="Path-42" data-name="Path" d="M1.425,3.01c24.2,2.9,48.3,5.7,72.5,8.2,1.9.2,1.9-2.8,0-3q-36.3-3.75-72.5-8.2c-1.9-.2-1.9,2.8,0,3Z" transform="translate(39.275 74.99)" fill="#161616"/>
    <path id="Path-43" data-name="Path" d="M1.425,3c10.2,1,20.4,1.8,30.6,2.3,1.9.1,1.9-2.9,0-3-10.2-.5-20.4-1.3-30.6-2.3-1.9-.1-1.9,2.9,0,3Z" transform="translate(29.975 66.698)" fill="#161616"/>
    <path id="Path-44" data-name="Path" d="M1.463,3a248.587,248.587,0,0,1,38.5,2.9c1.9.3,2.7-2.6.8-2.9a258.078,258.078,0,0,0-39.3-3,1.5,1.5,0,0,0,0,3Z" transform="translate(73.337 72.2)" fill="#161616"/>
    <path id="Path-45" data-name="Path" d="M1.886,10.738c14.4-2.3,28.7-4.9,43-7.8,1.9-.4,1.1-3.3-.8-2.9-14.3,2.9-28.6,5.5-43,7.8-1.9.3-1.1,3.2.8,2.9Z" transform="translate(133.114 74.162)" fill="#161616"/>
    <path id="Path-46" data-name="Path" d="M1.815,15.622a304.009,304.009,0,0,1,53.1-12.7c1.9-.3,1.1-3.2-.8-2.9a293.263,293.263,0,0,0-53.1,12.7c-1.8.7-1,3.6.8,2.9Z" transform="translate(160.385 70.478)" fill="#161616"/>
    <path id="Path-47" data-name="Path" d="M1.815,5.8A68.739,68.739,0,0,1,16.715,3c1.9-.1,1.9-3.1,0-3a70.081,70.081,0,0,0-15.7,2.9c-1.8.6-1,3.5.8,2.9Z" transform="translate(204.185 64.898)" fill="#161616"/>
    <path id="Path-48" data-name="Path" d="M.4,1.425c-.1,7.1-.3,14.2-.4,21.3a1.5,1.5,0,0,0,3,0c.1-7.1.3-14.2.4-21.3.1-1.9-2.9-1.9-3,0Z" transform="translate(45.2 87.275)" fill="#161616"/>
    <path id="Path-49" data-name="Path" d="M1.425,3.021q58.2,7.8,116.5,15.5c1.9.3,1.9-2.7,0-3q-58.2-7.8-116.5-15.5c-1.9-.3-1.9,2.7,0,3Z" transform="translate(45.575 108.979)" fill="#161616"/>
    <path id="Path-50" data-name="Path" d="M1.086,2.922c11.6,1.8,23.2,3.3,34.9,4.4,1.9.2,1.9-2.8,0-3-11.4-1.1-22.8-2.5-34.1-4.3-1.9-.3-2.7,2.6-.8,2.9Z" transform="translate(131.414 94.578)" fill="#161616"/>
    <path id="Path-51" data-name="Path" d="M1.425,24.322c29.8-2.8,57.1-16.4,86.4-21.4,1.9-.3,1.1-3.2-.8-2.9-29.1,4.9-56.1,18.4-85.6,21.2-1.9.3-1.9,3.3,0,3.1Z" transform="translate(166.375 77.278)" fill="#161616"/>
    <path id="Path-52" data-name="Path" d="M1.086,2.922c10.1,1.5,20.3,2.6,30.5,3.2,1.9.1,1.9-2.9,0-3-10-.6-19.9-1.6-29.7-3.1-1.9-.3-2.7,2.6-.8,2.9Z" transform="translate(223.314 71.978)" fill="#161616"/>
    <path id="Path-53" data-name="Path" d="M.8,1.5C.5,9.3.3,17.2,0,25c-.1,1.9,2.9,1.9,3,0,.3-7.8.5-15.7.8-23.5.1-2-2.9-2-3,0Z" transform="translate(163.498 99.8)" fill="#161616"/>
    <path id="Path-54" data-name="Path" d="M1.886,28.381q44.85-10.8,88.6-25.4c1.8-.6,1-3.5-.8-2.9-29.2,9.7-58.7,18.1-88.6,25.4-1.9.4-1.1,3.3.8,2.9Z" transform="translate(163.214 99.219)" fill="#161616"/>
    <path id="Path-55" data-name="Path" d="M.01,1.425a133.6,133.6,0,0,1,.6,21.9c-.1,1.9,2.9,1.9,3,0a160.237,160.237,0,0,0-.6-21.9c-.2-1.9-3.2-1.9-3,0Z" transform="translate(252.89 77.375)" fill="#161616"/>
    <path id="Path-56" data-name="Path" d="M3.425.01a13.552,13.552,0,0,1-2,.2,1.5,1.5,0,0,0,0,3c25.4,2.7,50.6,6.8,75.9,10.8,1.9.3,2.7-2.6.8-2.9-25.5-4.1-51-8.2-76.7-10.9v3a13.552,13.552,0,0,1,2-.2c1.9-.2,1.9-3.2,0-3Z" transform="translate(51.275 103.59)" fill="#161616"/>
    <path id="Path-57" data-name="Path" d="M1.015,2.938c7.6,1.9,15.2,3.7,22.9,5.2,1.9.4,2.7-2.5.8-2.9-7.7-1.5-15.3-3.2-22.9-5.2-1.8-.4-2.6,2.5-.8,2.9Z" transform="translate(61.485 96.262)" fill="#161616"/>
    <path id="Path-58" data-name="Path" d="M1.086,2.91c20.1,3.1,40.1,6.2,60.2,9.3,1.9.3,2.7-2.6.8-2.9-20.1-3.1-40.1-6.2-60.2-9.3-1.9-.2-2.7,2.7-.8,2.9Z" transform="translate(93.114 100.19)" fill="#161616"/>
    <path id="Path-59" data-name="Path" d="M1.425,13.922c16.7-.4,31.8-8.5,48.2-11,1.9-.3,1.1-3.2-.8-2.9-16.1,2.5-30.9,10.5-47.4,10.9-1.9.1-1.9,3.1,0,3Z" transform="translate(179.475 93.678)" fill="#161616"/>
    <path id="Path-60" data-name="Path" d="M1.886,8.458c7.3-1.8,14.6-3.6,21.9-5.5a1.5,1.5,0,0,0-.8-2.9c-7.3,1.8-14.6,3.6-21.9,5.5-1.9.4-1.1,3.3.8,2.9Z" transform="translate(173.614 109.242)" fill="#161616"/>
    <path id="Path-61" data-name="Path" d="M1.886,9.958c8.6-2.3,17.2-4.6,25.8-7a1.5,1.5,0,0,0-.8-2.9c-8.6,2.3-17.2,4.6-25.8,7a1.5,1.5,0,0,0,.8,2.9Z" transform="translate(223.314 94.342)" fill="#161616"/>
    <path id="Path-62" data-name="Path" d="M1.425,12.981a226.935,226.935,0,0,0,46.8-10c1.8-.6,1-3.5-.8-2.9a225.914,225.914,0,0,1-46,9.9c-1.9.2-1.9,3.2,0,3Z" transform="translate(5.675 109.919)" fill="#161616"/>
    <path id="Path-63" data-name="Path" d="M0,1.425c.3,6.8.7,13.5,1,20.3.1,1.9,3.1,1.9,3,0-.3-6.8-.7-13.5-1-20.3-.1-1.9-3.1-1.9-3,0Z" transform="translate(5.898 121.175)" fill="#161616"/>
    <path id="Path-64" data-name="Path" d="M1.388,3.021q69.3,9.15,138.5,18.2c1.9.3,1.9-2.8,0-3q-69.3-9.15-138.5-18.2c-1.9-.3-1.8,2.7,0,3Z" transform="translate(7.212 141.879)" fill="#161616"/>
    <path id="Path-65" data-name="Path" d="M1.058,2.91q66.9,9.45,133.9,17.2c1.9.2,1.9-2.8,0-3Q68.358,9.46,1.858.01c-1.8-.2-2.7,2.7-.8,2.9Z" transform="translate(6.642 121.29)" fill="#161616"/>
    <path id="Path-66" data-name="Path" d="M1.886,36.081q53.55-15.45,106.4-33.1c1.8-.6,1-3.5-.8-2.9q-52.95,17.55-106.4,33.1a1.5,1.5,0,0,0,.8,2.9Z" transform="translate(145.314 127.619)" fill="#161616"/>
    <path id="Path-67" data-name="Path" d="M1.886,30.081a780.336,780.336,0,0,0,93.5-27.1c1.8-.6,1-3.5-.8-2.9a780.336,780.336,0,0,1-93.5,27.1c-1.9.4-1.1,3.3.8,2.9Z" transform="translate(157.214 110.119)" fill="#161616"/>
    <path id="Path-68" data-name="Path" d="M0,1.425c.1,5.7.2,11.3.3,17a1.5,1.5,0,0,0,3,0c-.1-5.7-.2-11.3-.3-17-.1-1.9-3.1-1.9-3,0Z" transform="translate(250.798 110.775)" fill="#161616"/>
    <path id="Path-69" data-name="Path" d="M1.425,3.01c7.7.8,15.3,1.6,23,2.3,1.9.2,1.9-2.8,0-3-7.7-.8-15.3-1.6-23-2.3-1.9-.2-1.9,2.8,0,3Z" transform="translate(226.675 107.49)" fill="#161616"/>
    <path id="Path-70" data-name="Path" d="M1.463,3a559.869,559.869,0,0,1,65.8,7.9c1.9.3,2.7-2.6.8-2.9a570.963,570.963,0,0,0-66.6-8c-2-.1-1.9,2.9,0,3Z" transform="translate(17.137 136.198)" fill="#161616"/>
    <path id="Path-71" data-name="Path" d="M1.086,2.922q26.55,3.9,53,8.9c1.9.4,2.7-2.5.8-2.9q-26.4-4.95-53-8.9c-1.9-.3-2.7,2.6-.8,2.9Z" transform="translate(75.614 135.978)" fill="#161616"/>
    <path id="Path-72" data-name="Path" d="M0,1.425c.2,4.4.5,8.8.7,13.1.1,1.9,3.1,1.9,3,0-.2-4.4-.5-8.8-.7-13.1-.1-1.9-3.1-1.9-3,0Z" transform="translate(145.698 144.675)" fill="#161616"/>
    <path id="Path-73" data-name="Path" d="M1.886,13.958c14.8-3.3,29.5-7,44.2-11a1.5,1.5,0,0,0-.8-2.9c-14.6,4-29.4,7.7-44.2,11-1.9.4-1.1,3.3.8,2.9Z" transform="translate(160.514 133.042)" fill="#161616"/>
    <path id="Path-74" data-name="Path" d="M1.425,5.058a61.944,61.944,0,0,0,11.4-2.1,1.5,1.5,0,0,0-.8-2.9,63.893,63.893,0,0,1-10.6,2c-1.9.2-1.9,3.2,0,3Z" transform="translate(160.475 147.442)" fill="#161616"/>
    <path id="Path-75" data-name="Path" d="M1.815,11.881c9.3-3,18.6-6,27.8-8.9,1.8-.6,1-3.5-.8-2.9-9.3,3-18.6,6-27.8,8.9-1.8.6-1,3.5.8,2.9Z" transform="translate(214.085 124.719)" fill="#161616"/>
    <path id="Path-76" data-name="Path" d="M1.843,6.458c4-1.2,8.1-2.3,12.1-3.5a1.5,1.5,0,0,0-.8-2.9c-4,1.2-8.1,2.3-12.1,3.5a1.506,1.506,0,0,0,.8,2.9Z" transform="translate(232.057 119.642)" fill="#161616"/>
    <path id="Path-77" data-name="Path" d="M.01,1.425a141.8,141.8,0,0,1,1.1,23.5c-.1,1.9,2.9,1.9,3,0a141.8,141.8,0,0,0-1.1-23.5c-.2-1.9-3.2-1.9-3,0Z" transform="translate(53.09 149.075)" fill="#161616"/>
    <path id="Path-78" data-name="Path" d="M1.425,3.021q69.3,9,138.5,17.9c1.9.2,1.9-2.8,0-3q-69.3-9-138.5-17.9c-1.9-.3-1.9,2.7,0,3Z" transform="translate(55.375 173.079)" fill="#161616"/>
    <path id="Path-79" data-name="Path" d="M0,1.463c.5,7.8.9,15.7,1.4,23.5.1,1.9,3.1,1.9,3,0-.5-7.8-.9-15.7-1.4-23.5-.1-1.9-3.1-2-3,0Z" transform="translate(192.998 167.137)" fill="#161616"/>
    <path id="Path-80" data-name="Path" d="M2.292,44.651q43.35-21,86.8-41.9c1.7-.8.2-3.4-1.5-2.6q-43.35,21-86.8,41.9c-1.8.9-.2,3.5,1.5,2.6Z" transform="translate(192.608 149.149)" fill="#161616"/>
    <path id="Path-81" data-name="Path" d="M1.815,40.587a681.634,681.634,0,0,0,86.3-37.8c1.7-.9.2-3.5-1.5-2.6a693.447,693.447,0,0,1-85.6,37.5c-1.8.7-1,3.6.8,2.9Z" transform="translate(192.685 127.613)" fill="#161616"/>
    <path id="Path-82" data-name="Path" d="M0,1.5C.2,9,.4,16.5.6,23.9c.1,1.9,3.1,1.9,3,0-.2-7.5-.4-15-.6-22.4a1.5,1.5,0,0,0-3,0Z" transform="translate(278.1 127.7)" fill="#161616"/>
    <path id="Path-83" data-name="Path" d="M1.425,3a186.926,186.926,0,0,1,24.8,1.9c1.9.3,2.7-2.6.8-2.9a199.209,199.209,0,0,0-25.6-2,1.5,1.5,0,0,0,0,3Z" transform="translate(252.375 124.6)" fill="#161616"/>
    <path id="Path-84" data-name="Path" d="M1.086,2.938a223.666,223.666,0,0,0,30.6,3.3c1.9.1,1.9-2.9,0-3a213.731,213.731,0,0,1-29.8-3.2c-1.9-.4-2.7,2.5-.8,2.9Z" transform="translate(147.714 161.062)" fill="#161616"/>
    <path id="Path-85" data-name="Path" d="M1.865,14.151a162.035,162.035,0,0,0,31.7-11.4c1.7-.8.2-3.4-1.5-2.6a160.355,160.355,0,0,1-30.9,11.1c-2,.4-1.2,3.3.7,2.9Z" transform="translate(201.435 158.549)" fill="#161616"/>
    <path id="Path-86" data-name="Path" d="M1.843,14.487a195.927,195.927,0,0,0,25.5-11.7c1.7-.9.2-3.5-1.5-2.6a185.447,185.447,0,0,1-24.8,11.4c-1.8.7-1.1,3.6.8,2.9Z" transform="translate(202.657 166.013)" fill="#161616"/>
    <path id="Path-87" data-name="Path" d="M1.815,16.051c11.1-3.9,22.1-8.4,32.9-13.3,1.8-.8.2-3.4-1.5-2.6-10.5,4.8-21.2,9.1-32.2,12.9-1.8.7-1,3.6.8,3Z" transform="translate(238.585 139.449)" fill="#161616"/>
    <path id="Path-88" data-name="Path" d="M2.313,19.631a209.484,209.484,0,0,0,31.3-16.8c1.6-1.1.1-3.6-1.5-2.6a204.69,204.69,0,0,1-31.3,16.8c-1.8.8-.3,3.3,1.5,2.6Z" transform="translate(242.387 142.469)" fill="#161616"/>
  </g>
</svg>
