<svg xmlns="http://www.w3.org/2000/svg" width="268.278" height="223.311" viewBox="0 0 268.278 223.311">
  <g id="head" transform="translate(0.721 -0.035)">
    <path id="Path" d="M0,123.9l30.6,22.8,219.9-7.8q6.9-59.55,13.7-119.1C256,13.3,247.7,6.8,239.5.3,213.1-.9,139.5-.9,70.3,48.4A260.88,260.88,0,0,0,0,123.9Z" transform="translate(2.3 19.798)" fill="#161616" stroke="#161616" stroke-miterlimit="10" stroke-width="2"/>
    <path id="Path-2" data-name="Path" d="M6.616,5.154c-2,10.6-4,23.3-5.5,37.8-2,19.2-1.3,24.1,2,27.3,8.5,8.4,29-.7,31.2-1.7a152.1,152.1,0,0,1-.9-27.8,144.633,144.633,0,0,1,6.1-33.8c-1.4-1.3-8.6-7.6-19.1-6.9A24.966,24.966,0,0,0,6.616,5.154Z" transform="translate(96.984 148.546)" fill="#fff" stroke="#161616" stroke-miterlimit="10" stroke-width="2"/>
    <path id="Path-3" data-name="Path" d="M2.248,7.521a39.272,39.272,0,0,1,29.3-3,1.5,1.5,0,0,0,.8-2.9,42.867,42.867,0,0,0-31.6,3.3c-1.7.9-.2,3.4,1.5,2.6Z" transform="translate(96.852 194.779)" fill="#161616"/>
    <path id="Path-4" data-name="Path" d="M2.184,8.418a32.332,32.332,0,0,1,30.3-2.9c1.8.7,2.6-2.2.8-2.9a35.01,35.01,0,0,0-32.6,3.2c-1.6,1-.1,3.6,1.5,2.6Z" transform="translate(97.916 176.282)" fill="#161616"/>
    <path id="Path-5" data-name="Path" d="M2.184,7.213c8.7-6.4,19.2-4.2,28.9-1.8a1.5,1.5,0,0,0,.8-2.9c-10.4-2.6-21.9-4.8-31.2,2.1-1.6,1.1-.1,3.7,1.5,2.6Z" transform="translate(101.216 160.587)" fill="#161616"/>
    <path id="Path-6" data-name="Path" d="M229,116.5q-114.45,3.9-229,7.8Q6.15,68.35,12.4,12.4,127.6,6.25,242.7,0,235.8,58.35,229,116.5Z" transform="translate(0.4 18.7)" fill="#fff" stroke="#161616" stroke-miterlimit="10" stroke-width="2"/>
    <path id="Path-7" data-name="Path" d="M0,16.981c0-1.1.4-8.8,6.8-13.6,5.4-4,13.5-4.8,19.4-.5,5.9,4.4,6.3,11.6,6.3,12.6C21.6,15.981,10.8,16.481,0,16.981Z" transform="translate(104.5 8.419)" fill="#161616" stroke="#161616" stroke-miterlimit="10" stroke-width="2"/>
    <path id="Path-8" data-name="Path" d="M3.674,10.665c-.9-2.8-1.9-8.8,3.1-7.3.6.2,3.3.6,3.5,1.1.7,1.1-.3,4.1-.5,5.2l1-1c-1.5.5-3.4.9-4.9.1a2.545,2.545,0,0,1-1.3-3.2h-2.6a1.866,1.866,0,0,1,.4,1.9h2.9a5.822,5.822,0,0,1-.3-1.9c.2-.8.1-1-.5-.6a4.714,4.714,0,0,1,.6,1.5,3.178,3.178,0,0,1-.2,1.4h2.9c-.4-.9-.7-3.1-1.3-1.2a5.36,5.36,0,0,0,.2,2.8c1-.3,1.9-.5,2.9-.8-.5-1.3-1.7-4-.3-5.1a11.019,11.019,0,0,0-1.8-.2,4.342,4.342,0,0,1,.9,3.8,23.347,23.347,0,0,0,2.5-.7,1.6,1.6,0,0,1,.2-2.3h-2.1a1.657,1.657,0,0,1,.2,2c-.9,1.7,1.7,3.2,2.6,1.5a4.826,4.826,0,0,0-.6-5.6,1.543,1.543,0,0,0-2.1,0,4.708,4.708,0,0,0-.2,6.6,1.512,1.512,0,0,0,2.5-.7,7.783,7.783,0,0,0-1.7-6.7,1.377,1.377,0,0,0-1.8-.2c-2.8,2.1-2.3,5.6-1.1,8.5.7,1.7,3.4,1.1,2.9-.8-.5-1.6.4-3.2-.7-4.7a3.143,3.143,0,0,0-2.6-1.4c-3.3,0-2.1,4.2-1.4,6.1.5,1.3,2.5,1.6,2.9,0,.6-2.4,0-6.4-2.9-7-3.6-.7-2.9,4.5-2.5,6.5a1.51,1.51,0,0,0,2.9,0,4.842,4.842,0,0,0-.7-4.2,1.542,1.542,0,0,0-2.6,0,5.661,5.661,0,0,0,4.3,8c1.6.3,4.6.3,5.9-.9,1.3-1.3,1.3-5.3,1.1-7-.2-1.9-1.4-2.6-3.1-3-2.1-.4-4.2-1.6-6.4-1-4.9,1.5-4.2,7.5-3,11.2.5,1.9,3.4,1.1,2.8-.7Z" transform="translate(114.926 0.035)" fill="#161616"/>
    <path id="Path-9" data-name="Path" d="M181.6,76.4Q90.85,79.25,0,82.1C1.9,57.3,3.8,32.4,5.7,7.6Q96.45,3.85,187.3,0,184.45,38.1,181.6,76.4Z" transform="translate(22.6 39.9)" fill="#fff" stroke="#161616" stroke-miterlimit="10" stroke-width="2"/>
    <path id="Path-10" data-name="Path" d="M18.9,9.6c0,1.5,0,3-.8,3.9-1.3,1.4-3.5.1-8.3,0-5.2,0-7.6,1.5-9,0C0,12.6,0,11.1,0,9.6A9.518,9.518,0,0,1,9.5,0,9.562,9.562,0,0,1,18.9,9.6Z" transform="translate(42 56.1)" fill="#161616" stroke="#161616" stroke-miterlimit="10" stroke-width="2"/>
    <path id="Path-11" data-name="Path" d="M18.9,9.6c0,1.5,0,3-.8,3.9-1.3,1.4-3.5.1-8.3,0-5.2,0-7.6,1.5-9,0C0,12.6,0,11.1,0,9.6A9.518,9.518,0,0,1,9.5,0,9.5,9.5,0,0,1,18.9,9.6Z" transform="translate(159.1 53.2)" fill="#161616" stroke="#161616" stroke-miterlimit="10" stroke-width="2"/>
    <path id="Path-12" data-name="Path" d="M.038,2.125c1.3,6.2,4.9,13.4,12.5,12.4,6.6-.9,9.7-7.1,10.3-13.1.2-1.9-2.8-1.9-3,0-.4,4.7-3,10.1-8.5,10.2s-7.5-6-8.4-10.3c-.4-1.9-3.3-1.1-2.9.8Z" transform="translate(96.062 77.775)" fill="#161616"/>
    <path id="Path-13" data-name="Path" d="M1.4,4.194A41.122,41.122,0,0,1,22,3.094c1.4.3,2-1.9.6-2.2A43.556,43.556,0,0,0,.8,1.994a1.141,1.141,0,0,0,.6,2.2Z" transform="translate(37.803 75.406)" fill="#161616"/>
    <path id="Path-14" data-name="Path" d="M1.4,3.659a40.521,40.521,0,0,1,15.9-1c1.4.2,1.4-2.1,0-2.3A41.813,41.813,0,0,0,.8,1.459a1.141,1.141,0,0,0,.6,2.2Z" transform="translate(39.103 80.841)" fill="#161616"/>
    <path id="Path-15" data-name="Path" d="M1.4,3.435c7.5-2.1,14.9-1.1,22.4.5,1.4.3,2-1.9.6-2.2C16.5.135,8.7-.965.8,1.235a1.141,1.141,0,0,0,.6,2.2Z" transform="translate(156.403 72.165)" fill="#161616"/>
    <path id="Path-16" data-name="Path" d="M1.125,2.686a87.056,87.056,0,0,1,19.1.3c1.4.2,1.4-2.1,0-2.3a87.154,87.154,0,0,0-19.1-.3c-1.5.2-1.5,2.5,0,2.3Z" transform="translate(159.475 77.714)" fill="#161616"/>
    <path id="Path-17" data-name="Path" d="M2.785,5.286a1.723,1.723,0,0,1,.6-2.8,2.776,2.776,0,0,1,3.4.9,1.433,1.433,0,0,1-.8,2.4,6.236,6.236,0,0,1-3.3-.3,1.141,1.141,0,0,0-.6,2.2c1.9.6,4.5.9,6.1-.6,1.9-1.6,1.4-4.3-.3-5.8a5.115,5.115,0,0,0-6.4-.3,4.066,4.066,0,0,0-.4,5.9,1.168,1.168,0,1,0,1.7-1.6Z" transform="translate(190.215 105.714)" fill="#161616"/>
    <path id="Path-18" data-name="Path" d="M2.207,5.087c0-1.1.1-2.3,1.3-2.7a1.627,1.627,0,0,1,2.1.9,1.779,1.779,0,0,1-3.1,1.7c-.8-1.2-2.8-.1-1.9,1.1a4.369,4.369,0,0,0,5.1,1.6,4.108,4.108,0,0,0,2.2-5,3.983,3.983,0,0,0-4.7-2.6c-2.4.5-3.3,2.7-3.2,4.9,0,1.5,2.3,1.5,2.2.1Z" transform="translate(26.093 111.613)" fill="#161616"/>
    <path id="Path-19" data-name="Path" d="M18.6,10.3Q105,16.15,191.4,21.9c-2.2,24.2-4.4,48.5-6.6,72.7Q95.55,98.95,6.2,103.3c-2.1,6.2-4.1,12.4-6.2,18.6q105.75-3.3,211.6-6.6Q218.2,57.7,224.8,0,121.75,5.1,18.6,10.3Z" transform="translate(17.5 20)" fill="#666" opacity="0.31"/>
    <path id="Path-20" data-name="Path" d="M148.4,0,143,77.7Q.05,81.6,0,85.1q0,3.75,156.2,7Q152.45,46.05,148.4,0Z" transform="translate(61.7 38.2)" fill="#666" opacity="0.28"/>
    <path id="Path-21" data-name="Path" d="M0,80.2Q85.2,40.15,170.3,0c-2.1,24.8-4.1,49.6-6.2,74.4Q82.05,77.4,0,80.2Z" transform="translate(39 40.6)" fill="#666" opacity="0.11"/>
  </g>
</svg>
