<svg xmlns="http://www.w3.org/2000/svg" width="553.713" height="502.1" viewBox="0 0 553.713 502.1">
  <g id="sand_clock" transform="translate(-0.494 -0.3)">
    <path id="Path" d="M21.6,0c-3.2,17.1-7.2,53.2,9.1,92.6,30.6,74.1,106.5,95.9,116.7,98.6.3,11.7.7,23.5,1,35.2a280.075,280.075,0,0,0-73.5,50.3c-20.3,19.4-55.7,54-69.4,110.7-8.4,34.7-5.9,66-1,89.6l362.3,6c3.9-22.8,8.2-68.2-11.1-118.7-34.5-90.3-117-125.4-132.8-131.8-.3-15.8-.7-31.5-1-47.3,15.5-3.4,51.4-13.4,81.5-45.3C353.6,86.8,346,17.3,344.7,7.1Q183,3.5,21.6,0Z" transform="translate(75.397 14.1)" fill="#fff" stroke="#161616" stroke-miterlimit="10" stroke-width="3"/>
    <path id="Path-2" data-name="Path" d="M.745,17.814c9.9,5.4,20.5,9.5,31.8,11.1,8.2,1.1,16,.4,24.2-.5,10.4-1.2,20.7-2.1,31-3.9,10.5-1.8,20.5-4.9,30.9-7.2a18.94,18.94,0,0,1,8.2-.3c5.5,1.1,8.7,4.5,12.9,7.7,5.8,4.4,13.3,4.1,19.3.5,3.2-2,6.1-4.5,9.3-6.4a34.527,34.527,0,0,1,15.4-4.6,70.017,70.017,0,0,1,17.7,1.1c6.9,1.3,13,4.1,19.6,6.2,13,4.2,17-9.7,27.1-14.4,12.1-5.7,28.8-5.1,41.5-2.4,1.9.4,2.7-2.5.8-2.9a84.709,84.709,0,0,0-32.9-.4c-4.7.8-9.2,1.9-13.3,4.4-4.7,2.9-7.4,7.3-11.4,10.9-5.8,5.2-12.5,1.2-18.6-1.1a76.864,76.864,0,0,0-17.2-4c-9.8-1.2-20.2-.8-29.1,4-7.3,4-13.6,12-22.8,8.6-4-1.5-6.5-5.2-10.1-7.3a22.7,22.7,0,0,0-9.8-3.2c-6.5-.5-13.2,2.3-19.5,3.9a261.256,261.256,0,0,1-36.4,6.3c-9.6,1-19.5,2.8-29.2,2.5-13.4-.4-26.2-4.9-37.8-11.3-1.8-.9-3.3,1.7-1.6,2.7Z" transform="translate(115.555 107.386)" fill="#161616"/>
    <path id="Path-3" data-name="Path" d="M.108,1.815c1.6,3.8,3.2,7.8,5.9,11,1.7,2.1,4.3,3.7,5.4,6.4,1.1,2.8,1.1,6.5,1.5,9.5,1.3,10.3,2.7,20.6,7,30.2.8,1.8,3.4.2,2.6-1.5-4.7-10.3-5.6-21.5-7.1-32.6-.5-3.6-.7-7.3-3.3-10.1a44.321,44.321,0,0,1-9.1-13.7c-.7-1.8-3.6-1-2.9.8Z" transform="translate(224.192 226.685)" fill="#161616"/>
    <path id="Path-4" data-name="Path" d="M30.422.977c-4.4-3.4-7.8,2.9-9.4,6.3a45.252,45.252,0,0,0-3.6,9.9c-.9,3.9-.7,8.4-2.5,12-1.7,3.7-4.5,6.8-6.1,10.6a77.781,77.781,0,0,0-3.6,10.6c-2.3,9-3.6,18.3-5.2,27.4-.3,1.9,2.6,2.7,2.9.8,2.4-13.7,3.6-29,10.5-41.3,1.6-2.8,3.7-5.2,4.8-8.2a28.848,28.848,0,0,0,1.2-6.4c.3-2.2,5.9-21.9,8.9-19.6,1.4,1.2,3.6-.9,2.1-2.1Z" transform="translate(259.278 236.223)" fill="#161616"/>
    <path id="Path-5" data-name="Path" d="M4.5,10.7C3.6,9.1,2.7,7.2,3.1,5.4c.6-2.8,3.7-3.2,4.7-.5,1.2,3.2-.7,6.9-2.9,9a11.019,11.019,0,0,1,1.8-.2c-1.2-.9-2.4-1.8-3.5-2.6-1.6-1.2-3,1.5-1.5,2.6,1.2.9,2.4,1.8,3.5,2.6A1.507,1.507,0,0,0,7,16.1c3.6-3.5,6.9-12.9.6-15.7A5.443,5.443,0,0,0,.9,2.9c-1.8,3-.6,6.6,1,9.4.9,1.6,3.5.1,2.6-1.6Z" transform="translate(253.101 344.303)" fill="#161616"/>
    <path id="Path-6" data-name="Path" d="M4.481,9.628c-.7-1.4-1.8-3.3-1.5-5,.2-1,1.5-2.4,2.5-1.5,1,.8,1.1,3.2.8,4.3-.3,1-2,2.7-2.9,1.4-1.1-1.5-3.7,0-2.6,1.5a4.606,4.606,0,0,0,7,.5c2.3-2.2,2.1-6.6.4-9.1s-5-2.1-6.8,0c-2.6,2.8-1,6.7.5,9.6.9,1.5,3.5,0,2.6-1.7Z" transform="translate(245.219 379.772)" fill="#161616"/>
    <path id="Path-7" data-name="Path" d="M3.44,6.437c-1.3-1,0-4.3,1.8-3.3a2.436,2.436,0,0,1,1.1,2.5c-.3,1.3-2,1.1-2.7.4-1.4-1.4-3.5.8-2.1,2.1,2.1,2,6,2,7.4-.8a5.476,5.476,0,0,0-1.9-6.6,4.368,4.368,0,0,0-6.3,1.7,4.876,4.876,0,0,0,1.3,6.6c1.4,1.1,2.9-1.5,1.4-2.6Z" transform="translate(260.76 394.863)" fill="#161616"/>
    <path id="Path-8" data-name="Path" d="M2.66,58.731l24.9-20.1c4-3.2,7.8-6.6,12.1-9.4s9-4.1,13.8-5.9c15-5.8,28.2-30.7,45.4-15.1,5.6,5,10.2,9.4,17.5,11.8,8.3,2.7,16.5,4.3,24.4,8.2a84.274,84.274,0,0,1,35.9,34.3c.9,1.7,3.5.2,2.6-1.5a86.78,86.78,0,0,0-26-28.9,83.107,83.107,0,0,0-16.8-9.2c-6.8-2.8-13.9-3.9-20.8-6.4-12.4-4.5-18.8-20.3-33.9-15.7-6.1,1.9-11,6-15.7,10.2a65.942,65.942,0,0,1-8.8,7c-4.1,2.6-8.8,3.5-13.2,5.4-7,3-12.8,8.3-18.7,13L.46,56.531c-1.4,1.3.7,3.4,2.2,2.2Z" transform="translate(163.24 434.069)" fill="#161616"/>
    <path id="Path-9" data-name="Path" d="M9.93,1.08c-1.1,8.1-2.3,16.1-3.4,24.2-1,7.3-1.1,15.9-4.4,22.7a15.984,15.984,0,0,1,2.1-.5c-2.8-1.9-.9-11.3-.9-14.1.1-4.9.2-9.7.3-14.6a1.5,1.5,0,0,0-3,0c-.2,7.1-.3,14.2-.5,21.4-.1,3.6-.8,7.6,2.5,9.9a1.6,1.6,0,0,0,2.1-.5c3.2-6.6,3.5-14.3,4.5-21.5,1.2-8.7,2.5-17.4,3.7-26.1.1-2-2.8-2.8-3-.9Z" transform="translate(285.57 220.72)" fill="#161616"/>
    <path id="Path-10" data-name="Path" d="M.69,1.086a38.085,38.085,0,0,0,3.4,24.4c.9,1.7,3.4.2,2.6-1.5a35.228,35.228,0,0,1-3.1-22.1c.3-1.9-2.6-2.7-2.9-.8Z" transform="translate(222.21 208.014)" fill="#161616"/>
    <path id="Path-11" data-name="Path" d="M.684,2.909c18.2,13.3,40.7,18.4,59.7,30.1,1.6,1,3.2-1.6,1.5-2.6-19.1-11.7-41.6-16.8-59.7-30.1-1.6-1.2-3.1,1.4-1.5,2.6Z" transform="translate(167.216 163.791)" fill="#161616"/>
    <path id="Path-12" data-name="Path" d="M.681,2.825a39.771,39.771,0,0,1,18,24.2,1.5,1.5,0,0,0,2.9-.8,42.342,42.342,0,0,0-19.3-26,1.529,1.529,0,0,0-1.6,2.6Z" transform="translate(225.519 179.375)" fill="#161616"/>
    <path id="Path-13" data-name="Path" d="M2.981,37.766c4.8-13.2,11.1-26.5,22.8-34.9,1.6-1.1.1-3.7-1.5-2.6-12.4,9-19.1,22.6-24.2,36.7-.6,1.9,2.3,2.6,2.9.8Z" transform="translate(275.119 182.234)" fill="#161616"/>
    <path id="Path-14" data-name="Path" d="M2.509,25.438a75.259,75.259,0,0,1,38-22.5c1.9-.4,1.1-3.3-.8-2.9a77.248,77.248,0,0,0-39.3,23.2c-1.3,1.6.8,3.7,2.1,2.2Z" transform="translate(185.391 460.362)" fill="#161616"/>
    <path id="Path-15" data-name="Path" d="M2.248,12.351l21.6-9.6c1.8-.8.2-3.4-1.5-2.6l-21.6,9.6c-1.7.8-.2,3.4,1.5,2.6Z" transform="translate(208.652 464.049)" fill="#161616"/>
    <path id="Path-16" data-name="Path" d="M.462,2.55c8.8,8.1,23,5.3,31.1,14.1,1.3,1.4,3.4-.7,2.1-2.1-8.3-9-22.3-6.1-31.1-14.1-1.4-1.4-3.5.8-2.1,2.1Z" transform="translate(270.138 436.55)" fill="#161616"/>
    <path id="Path-17" data-name="Path" d="M8.7,18H372.2c11.6,0,11.6-18,0-18H8.7C-2.9,0-2.9,18,8.7,18Z" transform="translate(71.3 483.7)" fill="#161616"/>
    <path id="Path-18" data-name="Path" d="M8.7,18H336.2c11.6,0,11.6-18,0-18H8.7C-2.9,0-2.9,18,8.7,18Z" transform="translate(85.5 2.3)" fill="#161616"/>
    <path id="Path-19" data-name="Path" d="M29.7,0H8.7C-2.9,0-2.9,18,8.7,18h21c11.6,0,11.6-18,0-18Z" transform="translate(40.1 2.3)" fill="#161616"/>
    <path id="Path-20" data-name="Path" d="M9.006,18h8.1c4.7,0,9.2-4.1,9-9a9.159,9.159,0,0,0-9-9h-8.1c-4.7,0-9.2,4.1-9,9a9.159,9.159,0,0,0,9,9Z" transform="translate(0.494 0.3)" fill="#161616"/>
    <path id="Path-21" data-name="Path" d="M8.7,18H51.4C63,18,63,0,51.4,0H8.7C-2.9,0-2.9,18,8.7,18Z" transform="translate(455.7 482.4)" fill="#161616"/>
    <path id="Path-22" data-name="Path" d="M9.006,18h7.5c4.7,0,9.2-4.1,9-9a9.159,9.159,0,0,0-9-9h-7.5c-4.7,0-9.2,4.1-9,9a9.092,9.092,0,0,0,9,9Z" transform="translate(528.694 484.4)" fill="#161616"/>
    <path id="Path-23" data-name="Path" d="M.748,2.85c-.7,6.9-1.3,13.9.1,20.7,1.5,7.2,6,12.3,9.3,18.7,3.8,7.2,4.9,15.9,6.7,23.7l5.7,24.9c.9,3.8,6.6,2.2,5.8-1.6-1.8-8-3.7-16-5.5-24-1.7-7.4-2.9-15.2-5.7-22.2-2.5-6.3-7.6-11.4-9.7-17.9-2.3-7.2-1.4-15-.7-22.3.4-3.8-5.6-3.8-6,0Z" transform="translate(222.052 203.15)" fill="#161616"/>
    <path id="Path-24" data-name="Path" d="M1.56,5.537a28.027,28.027,0,0,0,17.1,2.4c3.8-.6,2.2-6.4-1.6-5.8A20.7,20.7,0,0,1,4.56.337c-3.5-1.7-6.5,3.5-3,5.2Z" transform="translate(207.64 197.463)" fill="#161616"/>
    <path id="Path-25" data-name="Path" d="M26.927.574c-4.8,3.4-7.2,8.3-8.3,13.9-.8,3.8-1,7.7-2.1,11.5a65.186,65.186,0,0,1-4.7,10.9c-6.7,13.5-13.4,27.8-11.5,43.2.5,3.8,6.5,3.8,6,0-1.8-14.5,4.4-27.6,10.7-40.2,2.7-5.4,5.2-10.7,6.2-16.6,1.1-6.1,1.2-13.6,6.7-17.5,3.2-2.3.2-7.5-3-5.2Z" transform="translate(256.372 236.926)" fill="#161616"/>
    <path id="Path-26" data-name="Path" d="M2.85,6c3.9,0,3.9-6,0-6-3.8,0-3.8,6,0,6Z" transform="translate(222.05 365.5)" fill="#161616"/>
    <path id="Path-27" data-name="Path" d="M2.925,6c3.9,0,3.9-6,0-6s-3.9,6,0,6Z" transform="translate(211.175 415)" fill="#161616"/>
    <path id="Path-28" data-name="Path" d="M.037,3.795c.3,2,.6,4.1.9,6.1.2,1.6,2.3,2.5,3.7,2.1a3.16,3.16,0,0,0,2.1-3.7c-.3-2-.6-4.1-.9-6.1-.2-1.6-2.3-2.5-3.7-2.1a3.16,3.16,0,0,0-2.1,3.7Z" transform="translate(244.963 302.505)" fill="#161616"/>
    <path id="Path-29" data-name="Path" d="M0,3v.7a3.009,3.009,0,0,0,3,3,3.076,3.076,0,0,0,3-3V3A3.009,3.009,0,0,0,3,0,3.076,3.076,0,0,0,0,3Z" transform="translate(260.6 328.895)" fill="#161616"/>
    <path id="Path-30" data-name="Path" d="M3.608,24.116c9.6-3.6,17.2-10.6,26.4-14.9,11.3-5.2,23.2,1.1,34.4-3.2,3.6-1.4,2-7.2-1.6-5.8-6.1,2.3-12.3,1-18.7.6a32.837,32.837,0,0,0-15.2,2.3c-9.6,3.9-17.3,11.5-27,15.2-3.4,1.4-1.9,7.2,1.7,5.8Z" transform="translate(339.492 106.684)" fill="#161616"/>
    <path id="Path-31" data-name="Path" d="M4.254.151c-9.1,3.9-1.4,13.5,2.8,17.7a182.823,182.823,0,0,1,23,28.2,187.406,187.406,0,0,1,27.1,64.9c.4,1.9,3.3,1.1,2.9-.8a193.686,193.686,0,0,0-21.4-55.9,177.421,177.421,0,0,0-16.4-23.9c-3.1-3.8-6.3-7.5-9.7-11.1-3-3.1-15-13-6.8-16.5,1.8-.8.2-3.4-1.5-2.6Z" transform="translate(357.146 307.749)" fill="#161616"/>
    <path id="Path-32" data-name="Path" d="M.516,2.557c30.3,25.2,42.6,63.7,53.7,100.1.6,1.8,3.5,1.1,2.9-.8-11.3-36.9-23.8-75.9-54.5-101.5-1.5-1.2-3.6.9-2.1,2.2Z" transform="translate(371.984 313.043)" fill="#161616"/>
    <path id="Path-33" data-name="Path" d="M.266,2.184c1.9,2.7,4.2,5.9,7.8,6.2,2.8.2,5.8-1.4,6.2-4.4.3-1.9-2.6-2.7-2.9-.8s-2.3,2.6-4,2c-2-.7-3.4-2.8-4.5-4.5-1.1-1.6-3.7-.1-2.6,1.5Z" transform="translate(415.334 426.516)" fill="#161616"/>
    <path id="Path-34" data-name="Path" d="M5.048,17.6c4.5,2,10.1.6,12.5-3.9a9.758,9.758,0,0,0-3.7-12.6,9.739,9.739,0,0,0-12.7,3.5c-2.5,4.4-.7,10,3.3,12.7,1.6,1.1,3.1-1.5,1.5-2.6a6.642,6.642,0,0,1-2.2-8.6,6.653,6.653,0,0,1,8.6-2.4,6.57,6.57,0,0,1,2.6,8.5,6.627,6.627,0,0,1-8.4,2.8c-1.7-.8-3.3,1.8-1.5,2.6Z" transform="translate(416.452 453.302)" fill="#161616"/>
    <path id="Path-35" data-name="Path" d="M0,1.425a179.644,179.644,0,0,0,53.3,123.6c1.4,1.4,3.5-.8,2.1-2.1A176.09,176.09,0,0,1,3,1.425c-.1-1.9-3.1-1.9-3,0Z" transform="translate(115.198 34.175)" fill="#161616"/>
    <path id="Path-36" data-name="Path" d="M12.25,1.938c-2.6-2.6-6.3-2.5-9.1-.2-3.7,3.1-3.3,8.7-2.9,13.1a173.738,173.738,0,0,0,7.5,38.5,183.093,183.093,0,0,0,38.2,67.1c1.3,1.4,3.4-.7,2.1-2.1a176.2,176.2,0,0,1-33-53.3,176.546,176.546,0,0,1-8.6-28.5c-1.1-5.3-2-10.6-2.6-15.9-.3-2.5-.6-4.9-.7-7.4a17.389,17.389,0,0,1-.1-3.2c.1-2.4,2.7-10.4,7.1-5.9,1.4,1.3,3.5-.9,2.1-2.2Z" transform="translate(106.15 32.362)" fill="#161616"/>
    <path id="Path-37" data-name="Path" d="M345.56,3.63q.15,4.8-258.5,15.8c-3,13.6-5,32.2,0,52.8,16,66.5,88.2,92.1,95.4,94.5.9,25.6,1.9,51.3,2.8,76.9a175.627,175.627,0,0,0-28.9,14,173.681,173.681,0,0,0-39.7,33.2c-8.9,10.2-37.5,43-39.8,92.7a142.323,142.323,0,0,0,13.9,67.6q121.8,6.9,243.7,13.9-165.9,1.35-331.7,2.8c-3.5-22.3-6.8-65,11.1-113,3.3-8.7,30.7-78.9,103.8-118.6a220.86,220.86,0,0,1,28.7-13c-.3-12.4-.6-24.7-.9-37.1a174.007,174.007,0,0,1-41.7-16.7c-9.7-5.4-74.1-42.8-86.2-115.8a149.435,149.435,0,0,1,.9-52.8Q345.46-1.72,345.56,3.63Z" transform="translate(76.64 18.27)" fill="#474747" opacity="0.25"/>
    <path id="Path-38" data-name="Path" d="M200.536,0q-77.85,10.95-155.7,21.8a187.017,187.017,0,0,0,31.3,89.2c30.3,44.7,71.4,63.1,87.3,69.3.9,19,1.9,38,2.8,57-33.9,6.6-56.2,20.4-68.4,29.4-8.1,6-81.3,59.6-73.1,136.7,1.4,13.3,6.2,36.1,24.6,61.3-15.8.2-31.5.4-47.3.5-3.2-24.5-6.1-75,20.1-127.1,20-39.6,48.6-63.9,65.2-77.7a289.217,289.217,0,0,1,59.2-38c.5-12.3,1.1-24.6,1.6-36.9-19.9-4.2-59.6-15.7-90.2-51.1a152.571,152.571,0,0,1-17.4-25c-22.2-39.4-23.7-80.6-21.6-107.5Q109.986.85,200.536,0Z" transform="translate(76.264 19.4)" fill="#474747" opacity="0.3"/>
  </g>
</svg>
